<?xml version="1.0" ?><!DOCTYPE svg  PUBLIC '-//W3C//DTD SVG 1.1 Tiny//EN'  'http://www.w3.org/Graphics/SVG/1.1/DTD/svg11-tiny.dtd'><svg baseProfile="tiny" version="1.1" viewBox="0 0 128 128" xml:space="preserve" xmlns="http://www.w3.org/2000/svg" xmlns:xlink="http://www.w3.org/1999/xlink"><g><g id="BACKGROUND"/><g id="Layer_3"><g><path d="M38.4,53L53,38.4c1.1-1.1,2.9-1.1,4,0c1.1,1.1,1.1,2.9,0,4L42.4,57.1      c-1.1,1.1-2.9,1.1-4,0C37.2,56,37.2,54.2,38.4,53z M27.7,51.7l24-24c2.2-2.2,5.8-2.2,8,0l24,24c2.2,2.2,2.2,5.8,0,8L76.4,67      L72,62.6L71.4,62l-1.1-1.1c-1.1-1.1-2.9-1.1-4,0l-5.4,5.4c-1.1,1.1-1.1,2.9,0,4l1.1,1.1l0.6,0.6l4.5,4.5l-7.3,7.3      c-2.2,2.2-5.8,2.2-8,0l-24-24C25.5,57.5,25.5,53.9,27.7,51.7z" fill="#005E5D" fill-rule="evenodd"/><path d="M71.4,62l0.6,0.6l29.1,29.1L102,102l-10.3-0.9l-6.3-6.3l0.7-7.7l-7.7,0.6L62.6,72      L62,71.4l-1.1-1.1c-1.1-1.1-1.1-2.9,0-4l5.4-5.4c1.1-1.1,2.9-1.1,4,0L71.4,62z" fill="#F7D309" fill-rule="evenodd"/><path d="M60.9,66.3l2.7-2.7L49.7,49.7l-7.3,7.3c-1.1,1.1-2.9,1.1-4,0c-1.1-1.1-1.1-2.9,0-4      l7.3-7.3l-6-6l-12,12c-2.2,2.2-2.2,5.8,0,8l24,24c2.2,2.2,5.8,2.2,8,0l7.3-7.3L62.6,72L62,71.4l-1.1-1.1      C59.8,69.2,59.8,67.4,60.9,66.3z" fill="#002535" fill-rule="evenodd"/><path d="M63.6,63.6l-2.7,2.7c-1.1,1.1-1.1,2.9,0,4l1.1,1.1l0.6,0.6l4.5,4.5l11.3,11.3      l7.7-0.6l-0.6,7.7l6.3,6.3L102,102L63.6,63.6z" fill="#DBBC26" fill-rule="evenodd"/></g></g><g id="GUIDELINE"/></g></svg>