<svg width="0" height="0" class="hidden">
  <symbol xmlns="http://www.w3.org/2000/svg" xmlns:xlink="http://www.w3.org/1999/xlink" preserveAspectRatio="xMidYMid meet" viewBox="0 0 32 32" id="facebook-f">
    <path fill="currentColor" d="m23.446 18l.889-5.791h-5.557V8.451c0-1.584.776-3.129 3.265-3.129h2.526V.392S22.277.001 20.085.001c-4.576 0-7.567 2.774-7.567 7.795v4.414H7.431v5.791h5.087v14h6.26v-14z"></path>
  </symbol>
  <symbol xmlns="http://www.w3.org/2000/svg" xmlns:xlink="http://www.w3.org/1999/xlink" preserveAspectRatio="xMidYMid meet" viewBox="0 0 24 24" id="instagram-fill">
    <path fill="currentColor" fill-rule="evenodd" d="M7.465 1.066C8.638 1.012 9.012 1 12 1c2.988 0 3.362.013 4.534.066c1.172.053 1.972.24 2.672.511c.733.277 1.398.71 1.948 1.27c.56.549.992 1.213 1.268 1.947c.272.7.458 1.5.512 2.67C22.988 8.639 23 9.013 23 12c0 2.988-.013 3.362-.066 4.535c-.053 1.17-.24 1.97-.512 2.67a5.396 5.396 0 0 1-1.268 1.949c-.55.56-1.215.992-1.948 1.268c-.7.272-1.5.458-2.67.512c-1.174.054-1.548.066-4.536.066c-2.988 0-3.362-.013-4.535-.066c-1.17-.053-1.97-.24-2.67-.512a5.397 5.397 0 0 1-1.949-1.268a5.392 5.392 0 0 1-1.269-1.948c-.271-.7-.457-1.5-.511-2.67C1.012 15.361 1 14.987 1 12c0-2.988.013-3.362.066-4.534c.053-1.172.24-1.972.511-2.672a5.396 5.396 0 0 1 1.27-1.948a5.392 5.392 0 0 1 1.947-1.269c.7-.271 1.5-.457 2.67-.511Zm8.98 1.98c-1.16-.053-1.508-.064-4.445-.064c-2.937 0-3.285.011-4.445.064c-1.073.049-1.655.228-2.043.379c-.513.2-.88.437-1.265.822a3.412 3.412 0 0 0-.822 1.265c-.151.388-.33.97-.379 2.043c-.053 1.16-.064 1.508-.064 4.445c0 2.937.011 3.285.064 4.445c.049 1.073.228 1.655.379 2.043c.176.477.457.91.822 1.265c.355.365.788.646 1.265.822c.388.151.97.33 2.043.379c1.16.053 1.507.064 4.445.064c2.938 0 3.285-.011 4.445-.064c1.073-.049 1.655-.228 2.043-.379c.513-.2.88-.437 1.265-.822c.365-.355.646-.788.822-1.265c.151-.388.33-.97.379-2.043c.053-1.16.064-1.508.064-4.445c0-2.937-.011-3.285-.064-4.445c-.049-1.073-.228-1.655-.379-2.043c-.2-.513-.437-.88-.822-1.265a3.413 3.413 0 0 0-1.265-.822c-.388-.151-.97-.33-2.043-.379Zm-5.85 12.345a3.669 3.669 0 0 0 4-5.986a3.67 3.67 0 1 0-4 5.986ZM8.002 8.002a5.654 5.654 0 1 1 7.996 7.996a5.654 5.654 0 0 1-7.996-7.996Zm10.906-.814a1.337 1.337 0 1 0-1.89-1.89a1.337 1.337 0 0 0 1.89 1.89Z" clip-rule="evenodd"></path>
  </symbol>
  <symbol xmlns="http://www.w3.org/2000/svg" xmlns:xlink="http://www.w3.org/1999/xlink" preserveAspectRatio="xMidYMid meet" viewBox="-2 -2 24 24" id="linkedin">
    <path fill="currentColor" d="M19.959 11.719v7.379h-4.278v-6.885c0-1.73-.619-2.91-2.167-2.91c-1.182 0-1.886.796-2.195 1.565c-.113.275-.142.658-.142 1.043v7.187h-4.28s.058-11.66 0-12.869h4.28v1.824l-.028.042h.028v-.042c.568-.875 1.583-2.126 3.856-2.126c2.815 0 4.926 1.84 4.926 5.792zM2.421.026C.958.026 0 .986 0 2.249c0 1.235.93 2.224 2.365 2.224h.028c1.493 0 2.42-.989 2.42-2.224C4.787.986 3.887.026 2.422.026zM.254 19.098h4.278V6.229H.254v12.869z"></path>
  </symbol>
  <symbol xmlns="http://www.w3.org/2000/svg" xmlns:xlink="http://www.w3.org/1999/xlink" preserveAspectRatio="xMidYMid meet" viewBox="0 0 32 32" id="telegram-plane">
    <path fill="currentColor" d="m29.919 6.163l-4.225 19.925c-.319 1.406-1.15 1.756-2.331 1.094l-6.438-4.744l-3.106 2.988c-.344.344-.631.631-1.294.631l.463-6.556L24.919 8.72c.519-.462-.113-.719-.806-.256l-14.75 9.288l-6.35-1.988c-1.381-.431-1.406-1.381.288-2.044l24.837-9.569c1.15-.431 2.156.256 1.781 2.013z"></path>
  </symbol>
  <symbol xmlns="http://www.w3.org/2000/svg" xmlns:xlink="http://www.w3.org/1999/xlink" preserveAspectRatio="xMidYMid meet" viewBox="0 0 1024 1024" id="twitter-outlined">
    <path fill="currentColor" d="M928 254.3c-30.6 13.2-63.9 22.7-98.2 26.4a170.1 170.1 0 0 0 75-94a336.64 336.64 0 0 1-108.2 41.2A170.1 170.1 0 0 0 672 174c-94.5 0-170.5 76.6-170.5 170.6c0 13.2 1.6 26.4 4.2 39.1c-141.5-7.4-267.7-75-351.6-178.5a169.32 169.32 0 0 0-23.2 86.1c0 59.2 30.1 111.4 76 142.1a172 172 0 0 1-77.1-21.7v2.1c0 82.9 58.6 151.6 136.7 167.4a180.6 180.6 0 0 1-44.9 5.8c-11.1 0-21.6-1.1-32.2-2.6C211 652 273.9 701.1 348.8 702.7c-58.6 45.9-132 72.9-211.7 72.9c-14.3 0-27.5-.5-41.2-2.1C171.5 822 261.2 850 357.8 850C671.4 850 843 590.2 843 364.7c0-7.4 0-14.8-.5-22.2c33.2-24.3 62.3-54.4 85.5-88.2z"></path>
  </symbol>
</svg>